<svg width="24" height="24" fill="none" xmlns="http://www.w3.org/2000/svg"><path d="m10.878 5.41.662-.75a.998.998 0 0 1 .196.236l-.858.513Zm.664 13.964.956-.293a1 1 0 0 1-1.558 1.092l.602-.8ZM8.99 11.03l.956-.293-.956.293Zm.228-1.33-.803-.595.803.595Zm1.206-.608v1-1Zm2.658 0 .858-.513a1 1 0 0 1-.858 1.513v-1Zm-.63 3-.957.293a1 1 0 0 1 .957-1.293v1Zm1.969 6.438.652.758a1 1 0 0 1-1.608-.465l.956-.293Zm1.307-6.438v-1 1Zm1.305-.76-.87-.493.87.493Zm-.018-1.51-.858.513.858-.513Zm-2.716-4.54-.858.514a1 1 0 0 1 .216-1.28l.642.767Zm-4.083.877c-1.407-1.243-2.972-1.39-4.14-.893C4.91 5.76 4 6.948 4 8.708H2c0-2.523 1.355-4.46 3.294-5.283 1.935-.821 4.309-.476 6.246 1.235l-1.324 1.499ZM4 8.708c0 .71.288 1.564.855 2.527.56.952 1.348 1.933 2.235 2.881 1.775 1.895 3.858 3.559 5.053 4.459l-1.203 1.598c-1.232-.928-3.42-2.672-5.31-4.69-.944-1.009-1.837-2.11-2.498-3.233C2.476 11.137 2 9.923 2 8.708h2Zm6.585 10.958-2.551-8.343 1.912-.585 2.552 8.343-1.912.585Zm-2.551-8.343a2.5 2.5 0 0 1 .38-2.218l1.608 1.19a.5.5 0 0 0-.076.443l-1.912.585Zm.38-2.218a2.5 2.5 0 0 1 2.01-1.013v2a.5.5 0 0 0-.402.203l-1.607-1.19Zm2.01-1.013h2.658v2h-2.658v-2Zm1.8 1.514L10.02 5.923l1.716-1.027 2.204 3.683-1.716 1.027Zm1.184 2.194 1.97 6.438-1.913.585-1.97-6.438 1.913-.585Zm2.32 1.292h-3.276v-2h3.276v2Zm2.175-1.267a2.5 2.5 0 0 1-2.175 1.267v-2a.5.5 0 0 0 .435-.253l1.74.986Zm-.03-2.517a2.5 2.5 0 0 1 .03 2.517l-1.74-.986a.5.5 0 0 0-.006-.504l1.716-1.027ZM15.157 4.77l2.716 4.54-1.716 1.026-2.716-4.539 1.716-1.027Zm5.404 3.939c0-1.642-.817-2.81-1.86-3.325-1.027-.507-2.42-.454-3.76.667l-1.284-1.535c1.897-1.585 4.134-1.811 5.93-.925 1.778.879 2.974 2.777 2.974 5.118h-2Zm-6.793 9.064c1.308-1.126 3.044-2.739 4.444-4.445.7-.852 1.299-1.707 1.718-2.516.424-.818.63-1.526.63-2.103h2c0 1.022-.354 2.056-.854 3.023-.505.975-1.195 1.948-1.948 2.866-1.506 1.834-3.34 3.532-4.684 4.69l-1.306-1.515Z" fill='currentColor'/></svg>