<svg width="24" height="24" fill="none" xmlns="http://www.w3.org/2000/svg"><path fill-rule="evenodd" clip-rule="evenodd" d="M8.606 9.836c-.402-1.808 1.657-3.143 3.144-2.04l7.125 5.29c1.363 1.012.924 3.157-.728 3.551l-1.375.328 2.418 3.462a1 1 0 0 1-1.64 1.146L15 17.92l-1.12 1.203c-1.098 1.18-3.068.643-3.417-.929L8.606 9.836Zm9.076 4.856-7.124-5.29 1.857 8.359 1.964-2.11.206-.22.294-.07 2.803-.67Z" fill='currentColor'/><path d="m12.068 6.087 2.278-1.676m-9.682 7.125L6.942 9.86m5.126-3.773 2.278-1.676m-9.682 7.125L6.942 9.86M4 5.563l2.59 1.134M8.84 2l.313 2.811" stroke='currentColor' stroke-width="2" stroke-linecap="round"/></svg>