<svg width="24" height="24" fill="none" xmlns="http://www.w3.org/2000/svg"><path d="m16.272 3.13 1.174 3.023a1 1 0 0 1-.57 1.295l-3.023 1.174M7.616 20.511l-.682-3.17a1 1 0 0 1 .767-1.188l3.17-.682" stroke='currentColor' stroke-width="2.5" stroke-linecap="round"/><path fill-rule="evenodd" clip-rule="evenodd" d="M16.915 7.868c.735-.363.96-1.312.348-1.857A8 8 0 0 0 3.964 12.57c.06.818.95 1.217 1.685.855.524-.259.796-.836.795-1.42a5.5 5.5 0 0 1 8.86-4.37c.464.357 1.087.492 1.611.234Zm-9.94 8.246c.525-.258 1.148-.123 1.612.234a5.5 5.5 0 0 0 8.86-4.37c-.001-.584.27-1.161.795-1.42.735-.362 1.625.037 1.685.854A8 8 0 0 1 6.628 17.97c-.612-.544-.387-1.493.348-1.855Z" fill='currentColor'/></svg>