<svg width="24" height="24" fill="none" xmlns="http://www.w3.org/2000/svg"><path d="M15.036 8.521c.39-.39 1.031-.394 1.352.055a5.973 5.973 0 0 1 1.112 3.48 5.973 5.973 0 0 1-1.112 3.481c-.32.45-.962.446-1.353.055-.39-.39-.376-1.02-.094-1.494a3.986 3.986 0 0 0 .559-2.041c0-.746-.204-1.444-.56-2.041-.281-.475-.295-1.104.096-1.495Z" fill='currentColor'/><path d="M13 16.586V7.414c0-.89-1.077-1.337-1.707-.707l-2 2A1 1 0 0 1 8.586 9H7a1 1 0 0 0-1 1v4a1 1 0 0 0 1 1h1.586a1 1 0 0 1 .707.293l2 2c.63.63 1.707.184 1.707-.707Z" stroke='currentColor' stroke-width="2" stroke-linecap="round"/></svg>