<svg width="24" height="24" fill="none" xmlns="http://www.w3.org/2000/svg"><g clip-path="url(#a)"><mask id="b" fill='currentColor'><path d="M10.883 17.39c-.133.099-.132.29-.015.408l.99.99a.3.3 0 0 0 .424 0l.99-.99c.117-.117.118-.31-.015-.408A1.991 1.991 0 0 0 12.07 17c-.445 0-.855.145-1.187.39Z"/></mask><path d="M10.883 17.39c-.133.099-.132.29-.015.408l.99.99a.3.3 0 0 0 .424 0l.99-.99c.117-.117.118-.31-.015-.408A1.991 1.991 0 0 0 12.07 17c-.445 0-.855.145-1.187.39Z" fill='currentColor'/><path d="m13.272 17.798-1.414-1.414 1.414 1.414Zm-.015-.408 1.188-1.609-1.188 1.61Zm-1.4 1.398 1.415-1.414-1.414 1.414Zm.425 0 1.414 1.414-1.414-1.414Zm-1.414-.99-1.414 1.414 1.414-1.414Zm.015-.408-1.189-1.609 1.189 1.61Zm-1.43 1.822.99.99 2.829-2.828-.99-.99-2.828 2.828Zm4.243.99.99-.99-2.828-2.828-.99.99 2.828 2.828ZM12.07 19h.002-.002l-.001-.001 2.376-3.217A3.992 3.992 0 0 0 12.07 15v4Zm.001-.001h-.002l-.002.001h.003v-4c-.887 0-1.711.29-2.376.781L12.071 19Zm2.615.213c.83-.83 1.041-2.483-.24-3.43l-2.377 3.217c-1.016-.75-.807-2.02-.211-2.615l2.828 2.828Zm-4.242.99a2.3 2.3 0 0 0 3.252 0l-2.828-2.828a1.7 1.7 0 0 1 2.404 0l-2.829 2.828Zm1.838-3.818c.596.596.805 1.865-.211 2.615l-2.377-3.217c-1.282.947-1.07 2.6-.24 3.43l2.828-2.828Z" fill='currentColor' mask="url(#b)"/><path d="M8.536 15.464c-.39-.39-.395-1.031.055-1.352A5.972 5.972 0 0 1 12.071 13c1.298 0 2.5.412 3.48 1.112.45.32.446.962.056 1.352-.39.391-1.02.377-1.495.095a3.982 3.982 0 0 0-2.04-.559c-.746 0-1.444.204-2.042.56-.475.281-1.104.295-1.494-.096Z" fill='currentColor'/><path d="M5.708 12.636c-.39-.39-.394-1.028.034-1.378A9.959 9.959 0 0 1 12.072 9a9.96 9.96 0 0 1 6.33 2.258c.427.35.424.988.034 1.378-.39.39-1.02.385-1.457.046A7.965 7.965 0 0 0 12.072 11c-1.85 0-3.553.628-4.908 1.682-.436.339-1.066.345-1.456-.046Z" fill='currentColor'/><path d="M2.808 9.807c-.39-.39-.393-1.026.024-1.388A13.946 13.946 0 0 1 12 5a13.94 13.94 0 0 1 9.25 3.492c.415.365.408 1 .014 1.388-.393.388-1.024.38-1.442.02A11.953 11.953 0 0 0 12 7a11.952 11.952 0 0 0-7.75 2.837c-.421.357-1.052.36-1.442-.03Z" fill='currentColor'/></g><defs><clipPath id="a"><path fill='currentColor' transform="matrix(1 0 0 -1 0 24)" d="M0 0h24v24H0z"/></clipPath></defs></svg>