<svg width="24" height="24" fill="none" xmlns="http://www.w3.org/2000/svg"><path d="M13.036 8.521c.39-.39 1.031-.394 1.352.055a5.973 5.973 0 0 1 1.112 3.48 5.973 5.973 0 0 1-1.112 3.481c-.32.45-.962.446-1.352.055-.391-.39-.377-1.02-.095-1.494a3.986 3.986 0 0 0 .559-2.041c0-.746-.204-1.444-.56-2.041-.281-.475-.295-1.104.096-1.495Z" fill='currentColor'/><path d="M15.864 5.693c.39-.39 1.028-.393 1.378.034a9.959 9.959 0 0 1 2.258 6.33 9.959 9.959 0 0 1-2.258 6.33c-.35.427-.988.425-1.378.034-.39-.39-.385-1.02-.046-1.456a7.965 7.965 0 0 0 1.682-4.908c0-1.85-.628-3.553-1.682-4.908-.339-.435-.345-1.065.046-1.456Z" fill='currentColor'/><path d="M11 16.586V7.414c0-.89-1.077-1.337-1.707-.707l-2 2A1 1 0 0 1 6.586 9H5a1 1 0 0 0-1 1v4a1 1 0 0 0 1 1h1.586a1 1 0 0 1 .707.293l2 2c.63.63 1.707.184 1.707-.707Z" stroke='currentColor' stroke-width="2" stroke-linecap="round"/></svg>