<svg width="24" height="24" fill="none" xmlns="http://www.w3.org/2000/svg"><path d="M17.167 11.173c0 1.358 0-1.357 0 0Zm0 0v2.715m0-2.715c0-1.357 2.833-1.357 2.833 0V18.3c0 5.43-12.042 4.411-14.167 0l-2.125-4.328a1 1 0 0 1 .897-1.441h.599c.385 0 .735.22.904.564.712 1.45 2.559 5.12 2.559 4.187V4.018c0-1.357 2.833-1.357 2.833 0m5.667 7.155c0-1.357-2.843-1.357-2.834 0m0 0c0-1.357-2.833-1.357-2.833 0V4.018m2.833 7.155c0 .325 0-.352 0 0Zm0 0c.015 2.036 0 2.715 0 2.715m-2.833 0v-9.87" stroke='currentColor' stroke-width="1.75" stroke-linecap="round"/></svg>