<svg width="24" height="24" fill="none" xmlns="http://www.w3.org/2000/svg"><circle cx="12" cy="12" r="8" stroke='currentColor' stroke-width="2"/><path fill-rule="evenodd" clip-rule="evenodd" d="m15.535 8.464-4.95 2.122-2.121 4.95 4.95-2.122 2.12-4.95ZM11 13a1.414 1.414 0 1 0 2-2 1.414 1.414 0 0 0-2 2Z" fill='currentColor'/><path d="m10.585 10.586-.46-.197a.5.5 0 0 1 .263-.263l.197.46Zm4.95-2.122-.197-.46a.5.5 0 0 1 .657.657l-.46-.197Zm-7.071 7.072.197.46a.5.5 0 0 1-.657-.657l.46.197Zm4.95-2.122.46.197a.5.5 0 0 1-.263.263l-.197-.46ZM13 13l-.354-.354L13 13Zm0-2-.354.354L13 11Zm-2 0 .353.354L11 11Zm-.612-.874 4.95-2.121.394.92-4.95 2.12-.394-.919ZM8.004 15.34l2.122-4.95.919.394-2.122 4.95-.919-.394Zm5.607-1.465-4.95 2.121-.394-.919 4.95-2.121.394.919Zm2.383-5.213-2.12 4.95-.92-.394 2.121-4.95.92.394Zm-2.64 4.693a1.914 1.914 0 0 1-2.708 0l.707-.707a.914.914 0 0 0 1.293 0l.707.707Zm0-2.708c.747.748.747 1.96 0 2.708l-.708-.707a.914.914 0 0 0 0-1.293l.707-.708Zm-2.708 0a1.914 1.914 0 0 1 2.707 0l-.707.707a.914.914 0 0 0-1.293 0l-.707-.707Zm0 2.708a1.914 1.914 0 0 1 0-2.708l.707.707a.914.914 0 0 0 0 1.293l-.707.708Z" fill='currentColor'/></svg>