<svg width="24" height="24" fill="none" xmlns="http://www.w3.org/2000/svg"><path d="m5 5 14 14" stroke='currentColor' stroke-width="2" stroke-linecap="round" stroke-linejoin="round"/><path fill-rule="evenodd" clip-rule="evenodd" d="M8.933 4.812A3.5 3.5 0 0 1 15.5 6.5v4c0 .272-.03.536-.09.79L13.5 9.38V6.5a1.5 1.5 0 0 0-2.996-.116l-1.57-1.572Zm1.572 5.815L8.5 8.622V10.5a3.5 3.5 0 0 0 5.028 3.15l-1.655-1.655a1.5 1.5 0 0 1-1.368-1.368Z" fill='currentColor'/><path d="m8.933 4.812-.177.177-.133-.133.091-.165.22.121Zm6.478 6.478.243.056-.101.44-.32-.32.178-.176ZM13.5 9.38l-.177.176-.073-.073v-.104h.25Zm-2.996-2.996.25.019-.042.542-.384-.385.176-.176Zm.001 4.243.177-.177.065.065.007.091-.249.021ZM8.5 8.622h-.25v-.604l.427.427-.177.177Zm5.028 5.028.177-.177.248.248-.316.154-.109-.225Zm-1.655-1.655.02-.25.092.008.065.065-.177.177ZM8.714 4.692A3.75 3.75 0 0 1 12 2.75v.5a3.25 3.25 0 0 0-2.848 1.683l-.438-.242ZM12 2.75a3.75 3.75 0 0 1 3.75 3.75h-.5A3.25 3.25 0 0 0 12 3.25v-.5Zm3.75 3.75v4h-.5v-4h.5Zm0 4c0 .29-.033.574-.096.846l-.487-.113c.054-.235.083-.48.083-.733h.5Zm-2.073-1.298 1.91 1.91-.353.354-1.91-1.91.353-.354Zm-.427.177V6.5h.5v2.88h-.5Zm0-2.879c0-.69-.56-1.25-1.25-1.25v-.5c.966 0 1.75.784 1.75 1.75h-.5ZM12 5.25a1.25 1.25 0 0 0-1.246 1.153l-.499-.039A1.75 1.75 0 0 1 12 4.75v.5Zm-2.89-.615 1.571 1.572-.353.353-1.572-1.57.354-.354Zm1.219 6.169L8.322 8.799l.354-.354 2.005 2.005-.354.354ZM8.25 10.5V8.622h.5V10.5h-.5ZM12 14.25a3.75 3.75 0 0 1-3.75-3.75h.5A3.25 3.25 0 0 0 12 13.75v.5Zm1.637-.375c-.495.24-1.05.375-1.637.375v-.5c.51 0 .99-.117 1.419-.325l.218.45Zm-.286-.049-1.655-1.655.354-.353 1.655 1.655-.354.353Zm-2.597-3.22a1.25 1.25 0 0 0 1.14 1.14l-.042.498a1.75 1.75 0 0 1-1.596-1.596l.498-.042Z" fill='currentColor'/><path fill-rule="evenodd" clip-rule="evenodd" d="M8.463 13.73a1 1 0 0 0-1.925.54c.636 2.263 2.286 3.793 4.462 4.15V21a1 1 0 1 0 2 0v-2.58c.784-.129 1.5-.41 2.124-.821l-1.463-1.463c-.49.24-1.05.364-1.66.364-1.728 0-3.038-.994-3.538-2.77Zm7.318-.425a1 1 0 0 1 1.682.966 6.824 6.824 0 0 1-.177.54l-1.505-1.506Z" fill='currentColor'/></svg>