<svg width="24" height="24" fill="none" xmlns="http://www.w3.org/2000/svg"><path d="M13.868 15.63h-3.736a.473.473 0 0 1-.45-.31 24.011 24.011 0 0 1-.616-2.042C8.633 11.61 7.098 10.06 7.6 8.41c.571-1.88 2.335-2.78 4.4-2.78 2.065 0 3.829.9 4.4 2.78.502 1.65-1.032 3.2-1.466 4.867a23.978 23.978 0 0 1-.616 2.043.473.473 0 0 1-.45.31Z" stroke='currentColor' stroke-width="2" stroke-linecap="round"/><path d="M13.375 17.63h-2.5a.5.5 0 0 0-.5.5v1.276a.5.5 0 0 0 .168.374l.815.724a.5.5 0 0 0 .332.127h.978a.5.5 0 0 0 .353-.147l.708-.707a.5.5 0 0 0 .146-.353V18.13a.5.5 0 0 0-.5-.5Z" stroke='currentColor' stroke-width="1.5" stroke-linecap="round"/><path d="M20 9.5h2M19 6l1.5-1M19 13l1.5 1M4 9.5H2M5 6 3.5 5M5 13l-1.5 1" stroke='currentColor' stroke-width="2" stroke-linecap="round"/></svg>