<svg width="24" height="24" fill="none" xmlns="http://www.w3.org/2000/svg"><path d="m5 5 14 14" stroke='currentColor' stroke-width="2" stroke-linecap="round" stroke-linejoin="round"/><path fill-rule="evenodd" clip-rule="evenodd" d="M9.682 5.561A2.5 2.5 0 0 1 14.5 6.5v3.88L9.682 5.56Zm3.079 7.321L9.5 9.622v.878a2.5 2.5 0 0 0 3.26 2.382Z" fill='currentColor'/><path d="m9.682 5.561-.707.707-.469-.468.25-.614.926.375ZM14.5 10.38h1v2.414l-1.707-1.707.707-.707Zm-1.74 2.503.708-.707 1.16 1.161-1.564.499-.303-.953ZM9.5 9.622h-1V7.208l1.707 1.707-.707.707Zm-.745-4.436A3.5 3.5 0 0 1 12 3v2a1.5 1.5 0 0 0-1.391.937l-1.854-.751ZM12 3a3.5 3.5 0 0 1 3.5 3.5h-2A1.5 1.5 0 0 0 12 5V3Zm3.5 3.5v3.88h-2V6.5h2Zm-5.11-1.646 4.817 4.818-1.414 1.414-4.818-4.818 1.414-1.414Zm1.663 8.735-3.26-3.26 1.414-1.414 3.26 3.26-1.414 1.414ZM8.5 10.5v-.878h2v.878h-2ZM12 14a3.5 3.5 0 0 1-3.5-3.5h2A1.5 1.5 0 0 0 12 12v2Zm1.064-.165A3.5 3.5 0 0 1 12 14v-2a1.5 1.5 0 0 0 .457-.07l.607 1.905Z" fill='currentColor'/><path fill-rule="evenodd" clip-rule="evenodd" d="M8.463 13.73a1 1 0 0 0-1.925.54c.636 2.263 2.286 3.793 4.462 4.15V21a1 1 0 1 0 2 0v-2.58c.784-.129 1.5-.41 2.124-.821l-1.463-1.463c-.49.24-1.05.364-1.66.364-1.728 0-3.038-.994-3.538-2.77Zm7.318-.425a1 1 0 0 1 1.682.966 6.824 6.824 0 0 1-.177.54l-1.505-1.506Z" fill='currentColor'/></svg>