<svg width="24" height="24" fill="none" xmlns="http://www.w3.org/2000/svg"><path d="M17.523 19.897C9.848 18.898 4.509 13.455 4.034 6.23c-.035-.535.388-.98.923-1.005l3.847-.19a1 1 0 0 1 .981.636l.693 1.778a1 1 0 0 1-.441 1.234L7.812 9.937a1 1 0 0 0-.224 1.57l4.763 4.868a1 1 0 0 0 1.568-.179l1.39-2.278a1 1 0 0 1 1.212-.412l1.774.68a1 1 0 0 1 .638 1.022l-.337 3.806a.962.962 0 0 1-1.073.883Z" fill='currentColor' stroke='currentColor' stroke-linecap="round" stroke-linejoin="round"/><path d="M19.01 4.768 14.767 9.01m0 0-.204-3.33m.204 3.33 3.331.205" stroke='currentColor' stroke-width="2" stroke-linecap="round" stroke-linejoin="round"/></svg>