<svg width="24" height="24" fill="none" xmlns="http://www.w3.org/2000/svg"><mask id="a" fill='currentColor'><path fill-rule="evenodd" clip-rule="evenodd" d="M12.948 4.18a.5.5 0 0 0-.95 0l-1.658 5.1a.5.5 0 0 1-.476.346H4.501a.5.5 0 0 0-.294.905l4.34 3.152a.5.5 0 0 1 .18.56l-1.657 5.1a.5.5 0 0 0 .77.56l4.339-3.153a.5.5 0 0 1 .588 0l4.339 3.152a.5.5 0 0 0 .769-.559l-1.657-5.1a.5.5 0 0 1 .181-.56l4.34-3.152a.5.5 0 0 0-.295-.905h-5.363a.5.5 0 0 1-.475-.345l-1.658-5.1Zm.786 7.073L12.5 7.798l-1.234 3.455H7.269l3.232 2.135-1.234 3.455 3.232-2.135 3.233 2.135-1.235-3.455 3.233-2.135h-3.996Z"/></mask><path fill-rule="evenodd" clip-rule="evenodd" d="M12.948 4.18a.5.5 0 0 0-.95 0l-1.658 5.1a.5.5 0 0 1-.476.346H4.501a.5.5 0 0 0-.294.905l4.34 3.152a.5.5 0 0 1 .18.56l-1.657 5.1a.5.5 0 0 0 .77.56l4.339-3.153a.5.5 0 0 1 .588 0l4.339 3.152a.5.5 0 0 0 .769-.559l-1.657-5.1a.5.5 0 0 1 .181-.56l4.34-3.152a.5.5 0 0 0-.295-.905h-5.363a.5.5 0 0 1-.475-.345l-1.658-5.1Zm.786 7.073L12.5 7.798l-1.234 3.455H7.269l3.232 2.135-1.234 3.455 3.232-2.135 3.233 2.135-1.235-3.455 3.233-2.135h-3.996Z" fill='currentColor'/><path d="m11.997 4.18-.95-.309.95.31Zm.951 0 .951-.309-.95.31Zm-2.608 5.1-.951-.308.95.309Zm-6.133 1.25-.588.81.588-.81Zm4.34 3.153-.589.81.588-.81Zm.18.56-.95-.31.95.31Zm-1.657 5.1-.95-.309.95.31Zm.77.56.588.808-.588-.809Zm4.339-3.153.588.809-.588-.81Zm.588 0-.588.809.588-.81Zm4.339 3.152-.588.81.588-.81Zm.769-.559-.951.31.951-.31Zm-1.657-5.1.95-.31-.95.31Zm.181-.56-.588-.809.588.81Zm4.34-3.152-.588-.81.587.81Zm-6.133-1.25.95-.31-.95.31Zm-2.107-1.483-.941-.337.941-2.634.942 2.634-.942.337Zm1.235 3.455v1h-.704l-.237-.664.941-.336Zm-2.47 0 .942.336-.237.664h-.704v-1Zm-3.995 0-.552.834-2.777-1.834h3.33v1Zm3.232 2.135.552-.835.654.433-.264.739-.942-.337Zm-1.234 3.455.55.834-2.501 1.653 1.009-2.824.942.337Zm3.232-2.135-.55-.835.55-.364.551.364-.55.835Zm3.233 2.135.942-.337 1.009 2.824-2.502-1.653.551-.834Zm-1.235-3.455-.941.337-.264-.74.654-.431.551.834Zm3.233-2.135v-1h3.329l-2.778 1.834-.55-.834ZM11.046 3.87c.45-1.382 2.404-1.382 2.853 0l-1.902.618a.5.5 0 0 0 .951 0l-1.902-.618Zm-1.657 5.1 1.657-5.1 1.902.618-1.657 5.1-1.902-.617Zm.475-.345a.5.5 0 0 0-.475.346l1.902.618a1.5 1.5 0 0 1-1.427 1.036v-2Zm-5.363 0h5.363v2H4.501v-2Zm-.882 2.714c-1.175-.854-.571-2.714.882-2.714v2a.5.5 0 0 0 .294-.904L3.619 11.34Zm4.34 3.152-4.34-3.152 1.176-1.618 4.339 3.152-1.176 1.618Zm-.182-.559a.5.5 0 0 0 .181.56l1.176-1.619a1.5 1.5 0 0 1 .545 1.677l-1.902-.618Zm-1.658 5.101 1.658-5.1 1.902.617-1.658 5.101-1.902-.618Zm2.309 1.677c-1.176.854-2.758-.295-2.309-1.677l1.902.618a.5.5 0 0 0-.769-.559l1.176 1.618Zm4.339-3.152-4.34 3.152-1.175-1.618 4.339-3.152 1.176 1.618Zm-.588 0a.5.5 0 0 0 .588 0L11.59 15.94a1.5 1.5 0 0 1 1.763 0l-1.175 1.618Zm4.339 3.152-4.34-3.152 1.176-1.618 4.34 3.152-1.176 1.618Zm2.308-1.677c.45 1.382-1.133 2.531-2.308 1.677l1.175-1.618a.5.5 0 0 0-.77.56l1.903-.619Zm-1.657-5.1 1.657 5.1-1.902.618-1.657-5.1 1.902-.619Zm-.182.558a.5.5 0 0 0 .182-.559l-1.902.618a1.5 1.5 0 0 1 .545-1.677l1.175 1.618Zm4.34-3.152-4.34 3.152-1.175-1.618 4.339-3.152 1.175 1.618Zm-.883-2.714c1.454 0 2.058 1.86.882 2.714l-1.175-1.618a.5.5 0 0 0 .293.904v-2Zm-5.363 0h5.363v2h-5.363v-2Zm.476.346a.5.5 0 0 0-.476-.346v2a1.5 1.5 0 0 1-1.426-1.036l1.902-.618Zm-1.658-5.1 1.658 5.1-1.902.618-1.658-5.1L13.9 3.87Zm-.458 3.59 1.235 3.454-1.883.673-1.235-3.455 1.883-.673Zm-3.118 3.454 1.235-3.455 1.883.673-1.235 3.455-1.883-.673Zm-3.054-.663h3.996v2H7.269v-2Zm2.681 3.97-3.233-2.136 1.103-1.669 3.232 2.136-1.102 1.668Zm-1.625 2.283L9.56 13.05l1.883.674-1.235 3.454-1.883-.673Zm4.726-.964-3.233 2.135-1.103-1.668 3.233-2.136 1.102 1.669Zm2.13 2.135-3.233-2.135 1.102-1.669 3.233 2.136-1.102 1.668Zm.258-4.626 1.235 3.455-1.883.673-1.235-3.454 1.883-.674Zm2.842-.964-3.232 2.135-1.103-1.668 3.233-2.136 1.102 1.67Zm-4.547-1.834h3.996v2h-3.996v-2Z" fill='currentColor' mask="url(#a)"/></svg>