<svg width="24" height="24" fill="none" xmlns="http://www.w3.org/2000/svg"><path d="M8 17.5v-2A1.5 1.5 0 0 1 9.5 14h5a1.5 1.5 0 0 1 1.5 1.5v2a1.5 1.5 0 0 1-1.5 1.5h-5A1.5 1.5 0 0 1 8 17.5Z" stroke='currentColor' stroke-width="2" stroke-linecap="round"/><path fill-rule="evenodd" clip-rule="evenodd" d="M8 15.75v1.75c0 .085.007.169.02.25H6.25a2.5 2.5 0 0 1-2.5-2.5v-5a2.5 2.5 0 0 1 2.5-2.5h11a2.5 2.5 0 0 1 2.5 2.5v5a2.5 2.5 0 0 1-2.5 2.5h-1.27c.013-.081.02-.165.02-.25v-1.75h1.25a.5.5 0 0 0 .5-.5v-5a.5.5 0 0 0-.5-.5h-11a.5.5 0 0 0-.5.5v5a.5.5 0 0 0 .5.5H8Zm2.25-10.5a.5.5 0 0 1 .5-.5h2.5a.5.5 0 0 1 .5.5v.5a1 1 0 1 0 2 0v-.5a2.5 2.5 0 0 0-2.5-2.5h-2.5a2.5 2.5 0 0 0-2.5 2.5v.5a1 1 0 0 0 2 0v-.5Z" fill='currentColor'/></svg>