<svg width="24" height="24" fill="none" xmlns="http://www.w3.org/2000/svg"><rect x="3" y="3" width="5" height="5" rx="1" stroke='currentColor' stroke-width="2"/><rect x="3" y="16" width="5" height="5" rx="1" stroke='currentColor' stroke-width="2"/><rect x="16" y="3" width="5" height="5" rx="1" stroke='currentColor' stroke-width="2" stroke-linejoin="round"/><rect x="6" y="10" width="2" height="2" rx=".5" fill='currentColor'/><path d="M12.5 2h1a.5.5 0 0 1 .5.5v3a.5.5 0 0 1-.5.5h-1a.5.5 0 0 0-.5.5v1a.5.5 0 0 1-.5.5h-1a.5.5 0 0 1-.5-.5v-3a.5.5 0 0 1 .5-.5h1a.5.5 0 0 0 .5-.5v-1a.5.5 0 0 1 .5-.5Z" fill='currentColor'/><rect x="8" y="12" width="4" height="2" rx=".5" fill='currentColor'/><rect x="18" y="10" width="4" height="2" rx=".5" fill='currentColor'/><rect x="12" y="18" width="4" height="2" rx=".5" fill='currentColor'/><rect x="10" y="16" width="2" height="2" rx=".5" fill='currentColor'/><path d="M12 11.5v-1a.5.5 0 0 1 .5-.5h3a.5.5 0 0 1 .5.5V14h1.5a.5.5 0 0 1 .5.5v1a.5.5 0 0 1-.5.5h-3a.5.5 0 0 1-.5-.5v-3a.5.5 0 0 0-.5-.5h-1a.5.5 0 0 1-.5-.5Zm4.5 8.5h1a.5.5 0 0 0 .5-.5v-1a.5.5 0 0 1 .5-.5h1a.5.5 0 0 0 .5-.5v-3a.5.5 0 0 1 .5-.5h1a.5.5 0 0 1 .5.5v5a.5.5 0 0 1-.5.5h-1a.5.5 0 0 0-.5.5v1a.5.5 0 0 1-.5.5h-3a.5.5 0 0 1-.5-.5v-1a.5.5 0 0 1 .5-.5ZM2 13.5v-3a.5.5 0 0 1 .5-.5h1a.5.5 0 0 1 .5.5v1a.5.5 0 0 0 .5.5h1a.5.5 0 0 1 .5.5v1a.5.5 0 0 1-.5.5h-3a.5.5 0 0 1-.5-.5ZM13.5 22h-3a.5.5 0 0 1-.5-.5v-1a.5.5 0 0 1 .5-.5h1a.5.5 0 0 0 .5-.5v-1a.5.5 0 0 1 .5-.5h3a.5.5 0 0 1 .5.5v1a.5.5 0 0 1-.5.5h-1a.5.5 0 0 0-.5.5v1a.5.5 0 0 1-.5.5Z" fill='currentColor'/></svg>